<?xml version="1.0" encoding="UTF-8" standalone="no"?><svg xmlns="http://www.w3.org/2000/svg" xmlns:xlink="http://www.w3.org/1999/xlink" clip-rule="evenodd" stroke-miterlimit="10" viewBox="0 0 1024 768"><desc>SVG generated by Keynote</desc><defs></defs><g transform="matrix(1.00, 0.00, -0.00, -1.00, 0.0, 768.0)"><path d="M 0.0 768.0 L 1024.0 768.0 L 1024.0 0.0 L 0.0 0.0 Z M 0.0 768.0 " fill="#000000"></path><text xml:space="preserve" font-family="Helvetica-Light,Helvetica" font-size="75.2" fill="#FEFFFF" transform="matrix(1.00, 0.00, -0.00, -1.00, 6.7, 472.0)">N</text><text xml:space="preserve" font-family="Helvetica-Light,Helvetica" font-size="75.2" fill="#FEFFFF" transform="matrix(1.00, 0.00, -0.00, -1.00, 61.0, 472.0)">o</text><text xml:space="preserve" font-family="Helvetica-Light,Helvetica" font-size="75.2" fill="#FEFFFF" transform="matrix(1.00, 0.00, -0.00, -1.00, 102.8, 472.0)">t</text><text xml:space="preserve" font-family="Helvetica-Light,Helvetica" font-size="75.2" fill="#FEFFFF" transform="matrix(1.00, 0.00, -0.00, -1.00, 123.7, 472.0)"> </text><text xml:space="preserve" font-family="Helvetica-Light,Helvetica" font-size="75.2" fill="#FEFFFF" transform="matrix(1.00, 0.00, -0.00, -1.00, 144.6, 472.0)">e</text><text xml:space="preserve" font-family="Helvetica-Light,Helvetica" font-size="75.2" fill="#FEFFFF" transform="matrix(1.00, 0.00, -0.00, -1.00, 186.4, 472.0)">v</text><text xml:space="preserve" font-family="Helvetica-Light,Helvetica" font-size="75.2" fill="#FEFFFF" transform="matrix(1.00, 0.00, -0.00, -1.00, 224.0, 472.0)">e</text><text xml:space="preserve" font-family="Helvetica-Light,Helvetica" font-size="75.2" fill="#FEFFFF" transform="matrix(1.00, 0.00, -0.00, -1.00, 265.8, 472.0)">r</text><text xml:space="preserve" font-family="Helvetica-Light,Helvetica" font-size="75.2" fill="#FEFFFF" transform="matrix(1.00, 0.00, -0.00, -1.00, 292.2, 472.0)">y</text><text xml:space="preserve" font-family="Helvetica-Light,Helvetica" font-size="75.2" fill="#FEFFFF" transform="matrix(1.00, 0.00, -0.00, -1.00, 329.8, 472.0)">o</text><text xml:space="preserve" font-family="Helvetica-Light,Helvetica" font-size="75.2" fill="#FEFFFF" transform="matrix(1.00, 0.00, -0.00, -1.00, 371.6, 472.0)">n</text><text xml:space="preserve" font-family="Helvetica-Light,Helvetica" font-size="75.2" fill="#FEFFFF" transform="matrix(1.00, 0.00, -0.00, -1.00, 413.4, 472.0)">e</text><text xml:space="preserve" font-family="Helvetica-Light,Helvetica" font-size="75.2" fill="#FEFFFF" transform="matrix(1.00, 0.00, -0.00, -1.00, 455.2, 472.0)"> </text><text xml:space="preserve" font-family="Helvetica-Light,Helvetica" font-size="75.2" fill="#FEFFFF" transform="matrix(1.00, 0.00, -0.00, -1.00, 476.1, 472.0)">s</text><text xml:space="preserve" font-family="Helvetica-Light,Helvetica" font-size="75.2" fill="#FEFFFF" transform="matrix(1.00, 0.00, -0.00, -1.00, 513.7, 472.0)">e</text><text xml:space="preserve" font-family="Helvetica-Light,Helvetica" font-size="75.2" fill="#FEFFFF" transform="matrix(1.00, 0.00, -0.00, -1.00, 555.5, 472.0)">e</text><text xml:space="preserve" font-family="Helvetica-Light,Helvetica" font-size="75.2" fill="#FEFFFF" transform="matrix(1.00, 0.00, -0.00, -1.00, 597.4, 472.0)">s</text><text xml:space="preserve" font-family="Helvetica-Light,Helvetica" font-size="75.2" fill="#FEFFFF" transform="matrix(1.00, 0.00, -0.00, -1.00, 635.0, 472.0)"> </text><text xml:space="preserve" font-family="Helvetica-Light,Helvetica" font-size="75.2" fill="#FEFFFF" transform="matrix(1.00, 0.00, -0.00, -1.00, 655.9, 472.0)">i</text><text xml:space="preserve" font-family="Helvetica-Light,Helvetica" font-size="75.2" fill="#FEFFFF" transform="matrix(1.00, 0.00, -0.00, -1.00, 672.6, 472.0)">t</text><text xml:space="preserve" font-family="Helvetica-Light,Helvetica" font-size="75.2" fill="#FEFFFF" transform="matrix(1.00, 0.00, -0.00, -1.00, 693.5, 472.0)"> </text><text xml:space="preserve" font-family="Helvetica-Light,Helvetica" font-size="75.2" fill="#FEFFFF" transform="matrix(1.00, 0.00, -0.00, -1.00, 714.4, 472.0)">t</text><text xml:space="preserve" font-family="Helvetica-Light,Helvetica" font-size="75.2" fill="#FEFFFF" transform="matrix(1.00, 0.00, -0.00, -1.00, 735.3, 472.0)">h</text><text xml:space="preserve" font-family="Helvetica-Light,Helvetica" font-size="75.2" fill="#FEFFFF" transform="matrix(1.00, 0.00, -0.00, -1.00, 777.1, 472.0)">a</text><text xml:space="preserve" font-family="Helvetica-Light,Helvetica" font-size="75.2" fill="#FEFFFF" transform="matrix(1.00, 0.00, -0.00, -1.00, 818.9, 472.0)">t</text><text xml:space="preserve" font-family="Helvetica-Light,Helvetica" font-size="75.2" fill="#FEFFFF" transform="matrix(1.00, 0.00, -0.00, -1.00, 839.8, 472.0)"> </text><text xml:space="preserve" font-family="Helvetica-Light,Helvetica" font-size="75.2" fill="#FEFFFF" transform="matrix(1.00, 0.00, -0.00, -1.00, 860.7, 472.0)">w</text><text xml:space="preserve" font-family="Helvetica-Light,Helvetica" font-size="75.2" fill="#FEFFFF" transform="matrix(1.00, 0.00, -0.00, -1.00, 915.0, 472.0)">a</text><text xml:space="preserve" font-family="Helvetica-Light,Helvetica" font-size="75.2" fill="#FEFFFF" transform="matrix(1.00, 0.00, -0.00, -1.00, 956.8, 472.0)">y</text><text xml:space="preserve" font-family="Helvetica-Light,Helvetica" font-size="75.2" fill="#FEFFFF" transform="matrix(1.00, 0.00, -0.00, -1.00, 987.5, 472.0)">.</text></g></svg>